<svg width="18" height="23" viewBox="0 0 18 23" fill="none" xmlns="http://www.w3.org/2000/svg">
<path fill-rule="evenodd" clip-rule="evenodd" d="M15.3346 10.028L15.3889 15.351L17.5355 17.4585L17.5463 18.5231L0.54721 18.6964L0.536359 17.6318L2.63955 15.4809L2.58529 10.158C2.55187 6.87904 4.25587 4.13604 7.29771 3.38103L7.29033 2.65711C7.28133 1.7735 7.98589 1.05297 8.86772 1.04398C9.74955 1.03499 10.4687 1.74101 10.4777 2.62462L10.485 3.34854C13.531 4.04149 15.3013 6.75973 15.3346 10.028ZM11.3249 19.7199C11.3376 20.9665 10.328 21.9968 9.08143 22.0096C7.82349 22.0224 6.80448 21.0127 6.79178 19.7661L11.3249 19.7199Z" fill="#818EA3"/>
</svg>
